<svg width="34" height="20" viewBox="0 0 34 20" fill="none" xmlns="http://www.w3.org/2000/svg">
<path d="M22.0075 7.38953H21.1129L21.3864 6.06121H22.1452C22.3933 6.06121 22.5744 6.09652 22.6875 6.17077C22.8025 6.24411 22.8587 6.36001 22.8587 6.52028C22.8587 6.55197 22.8532 6.58367 22.8514 6.61626C22.8442 6.65067 22.8406 6.6887 22.8324 6.72945C22.7835 6.954 22.6948 7.1197 22.5608 7.22745C22.4241 7.3352 22.2402 7.38953 22.0075 7.38953ZM14.8435 9.26838C15.0572 9.26838 15.2301 9.19413 15.3659 9.04654C15.5017 8.89985 15.5977 8.67711 15.6575 8.38193C15.6665 8.33575 15.6738 8.28776 15.6783 8.23886C15.6819 8.19178 15.6846 8.14741 15.6846 8.10666C15.6846 7.93553 15.6412 7.80152 15.5525 7.70645C15.4646 7.61137 15.3406 7.56338 15.1794 7.56338C14.9666 7.56338 14.7937 7.63854 14.6578 7.78794C14.5211 7.93825 14.4242 8.16371 14.3627 8.46523C14.3545 8.51141 14.3473 8.55849 14.3418 8.60286C14.3373 8.64904 14.3355 8.6925 14.3364 8.73234C14.3364 8.90348 14.3808 9.03568 14.4695 9.12894C14.5564 9.2222 14.6805 9.26838 14.8435 9.26838ZM24.5039 9.30279C24.7511 9.38157 25.0698 9.1054 25.2102 8.68616C25.3542 8.26693 25.2663 7.86309 25.0173 7.78613C24.7719 7.70826 24.4523 7.98261 24.3129 8.40275C24.1662 8.82289 24.2558 9.22673 24.5039 9.30279ZM17.6957 13.0569H18.9452C19.0476 13.0714 19.1055 13.0306 19.1128 12.9346L19.1979 12.6304H17.8125L17.6957 13.0569ZM21.5421 14.8542H22.2402L22.4186 14.2222H21.7205L21.5421 14.8542ZM21.8264 13.8727C21.8264 13.8727 22.2792 13.6499 22.587 13.6309C22.6785 13.2959 22.7672 13.0025 22.7672 13.0025H22.0664L21.8264 13.8727ZM22.1769 12.6114C22.1769 12.6114 22.5834 12.4547 22.9356 12.4104C23.0135 12.1197 23.114 11.7792 23.114 11.7792H22.415L22.1769 12.6114ZM17.9003 12.2936C17.9003 12.2936 18.1303 12.1279 18.5142 12.1215C18.8991 12.1161 19.3373 12.1215 19.3373 12.1215L19.4487 11.715H18.066L17.9003 12.2936ZM33.4228 1.93951L29.7765 18.0732C29.5401 19.109 28.5351 19.9484 27.4983 20H19.3989C18.3476 19.9837 17.6939 19.1244 17.9338 18.0659L18.2172 16.8109H17.5816L17.2982 18.0659C17.0582 19.1235 17.7111 19.9837 18.7632 20H10.1522C9.10189 19.9837 8.44724 19.1244 8.68809 18.0659L9.5347 14.3209H8.79222L7.94561 18.0659C7.70475 19.1235 8.35941 19.9837 9.41065 20H2.29186C1.44615 19.9882 0.857594 19.4259 0.785156 18.6563V18.3575C0.7924 18.2633 0.805077 18.1664 0.827713 18.0686L4.47494 1.93408C4.71942 0.864723 6.08849 0 7.15694 0L14.2323 0.00181081C13.1702 0.0235421 11.8328 0.879211 11.5928 1.93408L10.9083 4.96469H11.6499L12.3353 1.93408C12.5753 0.878305 13.9117 0.0235421 14.9739 0.00181081C14.9883 0.000905338 15.0019 0 15.0155 0L20.4972 0.00271621H23.5794C23.5731 0.00271621 23.5668 0.00362205 23.5613 0.00362205C22.5019 0.0362189 21.1827 0.885549 20.9418 1.93318L20.2564 4.96378H20.892L21.5774 1.93318C21.8174 0.885549 23.1367 0.0362189 24.1961 0.00362205C24.2015 0.00362205 24.2069 0.00271621 24.2151 0.00271621C24.2151 0.00271621 24.216 0.00271621 24.2169 0.00271621L31.927 0.00452745C32.9945 0.00362198 33.6664 0.871061 33.4228 1.93951ZM8.33677 8.25063L8.98599 5.11952H8.0108L7.36792 8.21441C7.31178 8.48787 7.18592 8.69703 6.99305 8.84462C6.80019 8.99402 6.55209 9.06737 6.25057 9.06737C5.98708 9.06737 5.79874 8.99221 5.68284 8.841C5.60316 8.73959 5.56422 8.6101 5.56513 8.45165C5.56422 8.38012 5.57147 8.30043 5.59139 8.21351L6.23246 5.11862H5.25184L4.60261 8.24973C4.57092 8.40185 4.55553 8.54401 4.55553 8.6762C4.55553 8.99493 4.64879 9.25933 4.83441 9.46668C5.10243 9.75915 5.52257 9.90493 6.09664 9.90493C6.70602 9.90493 7.20403 9.76186 7.58885 9.47754C7.9773 9.1887 8.22811 8.78214 8.33677 8.25063ZM11.4054 7.2021C11.2732 7.03187 11.0631 6.94676 10.7716 6.94676C10.4501 6.94676 10.1776 7.06628 9.95212 7.30623L9.85343 7.42122L9.93221 7.01829H9.23952L8.68085 9.81347H9.39345L9.71127 8.20808C9.75202 8.00616 9.83532 7.8477 9.96118 7.73361C10.087 7.62043 10.241 7.56338 10.4239 7.56338C10.5733 7.56338 10.6765 7.60594 10.7299 7.69196C10.7852 7.77707 10.7951 7.91018 10.7598 8.08856L10.4148 9.81438H11.1274L11.5077 7.91018C11.5702 7.60775 11.5349 7.37323 11.4054 7.2021ZM24.886 9.63962L25.0164 9.79084L25.902 9.81347L26.4815 7.17856L25.7127 7.24647L25.3886 7.47012C25.049 7.20482 24.7384 7.04002 24.1408 7.318C23.325 7.69558 22.6432 10.5958 24.886 9.63962ZM25.5715 11.5348C25.4673 11.5348 25.4166 11.4958 25.423 11.4125L25.3858 11.0884H24.5039L24.5338 11.8001C24.5465 12.0047 24.6723 12.0971 24.9195 12.0835H25.5669L25.7263 11.5348H25.5715ZM19.6778 9.81347H20.6113L20.9445 8.17638H22.0238C22.4576 8.17638 22.8351 8.04419 23.1557 7.78251C23.4735 7.51901 23.679 7.17313 23.7678 6.74212C23.7859 6.66335 23.7967 6.58729 23.8067 6.51304C23.813 6.43789 23.8176 6.36726 23.8176 6.30569V6.29573C23.8176 5.96976 23.7153 5.71985 23.5097 5.546C23.3024 5.37396 23.0045 5.28522 22.6187 5.28522H20.6059L19.6778 9.81347ZM16.6236 9.81347H17.3353L17.654 8.20808C17.6939 8.00616 17.7772 7.8477 17.903 7.73361C18.0298 7.62043 18.1837 7.56338 18.3666 7.56338C18.5151 7.56338 18.6157 7.60594 18.6727 7.69196C18.7279 7.77707 18.7361 7.91018 18.7008 8.08856L18.3558 9.81438H19.0684L19.4487 7.91018C19.5112 7.60866 19.474 7.37323 19.3464 7.20301C19.2142 7.03278 19.0032 6.94766 18.7134 6.94766C18.3929 6.94766 18.1186 7.06719 17.894 7.30714L17.7971 7.42213L17.8759 7.0192H17.1823L16.6236 9.81347ZM15.8449 11.4551L16.0396 11.1119H15.1079L14.7602 11.6335C14.7212 11.715 14.6388 11.7557 14.5148 11.7557H14.3808L14.2296 12.3044H14.9222C15.1495 12.318 15.3379 12.2102 15.4909 11.9803H16.8201L16.9623 11.4551H15.8449ZM13.2227 7.0192H12.4548L11.8545 9.81257H12.6205L13.2227 7.0192ZM13.4708 6.00054H12.6957L12.5517 6.67965H13.3259L13.4708 6.00054ZM13.5984 8.82199C13.5994 9.15067 13.7008 9.40873 13.9027 9.60159C14.1028 9.79084 14.3753 9.88591 14.7212 9.88591C15.1396 9.88591 15.4981 9.75552 15.7969 9.49203C16.0966 9.23126 16.2895 8.8745 16.3782 8.4281C16.3909 8.36019 16.4009 8.29138 16.4108 8.21894C16.4181 8.14832 16.4226 8.08222 16.4226 8.02517C16.4226 7.69287 16.3221 7.43028 16.122 7.23651C15.9219 7.04364 15.6484 6.94676 15.3025 6.94676C14.8815 6.94676 14.5211 7.08077 14.2232 7.34788C13.9244 7.61318 13.7316 7.97356 13.6392 8.4281C13.6265 8.49239 13.6166 8.5603 13.6084 8.63184C13.6021 8.70065 13.5984 8.76404 13.5984 8.82199ZM16.0034 15.1956H15.2229C15.0237 15.2092 14.9512 15.1476 15.0055 15.0127L15.2283 14.2005H16.1872L16.3429 13.63H15.3849L15.5352 13.0795H16.5195L16.6752 12.51H14.2268L14.0729 13.0795H14.6578L14.5084 13.6282H13.8954L13.7406 14.2005H14.3527L14.0684 15.2381C13.9797 15.5641 14.0765 15.7271 14.3618 15.7271H15.8603L16.0034 15.1956ZM19.8951 13.7704H19.2323L19.1689 13.994C19.1689 14.061 19.1155 14.0963 19.0077 14.0963H18.7949L18.8112 13.7514H18.0117L17.9519 15.3377C17.9483 15.6085 18.0814 15.7352 18.3485 15.7253H19.3065L19.4378 15.2562H19.0394C18.8628 15.2562 18.7768 15.2074 18.785 15.115L18.7868 14.5246H19.2124C19.5347 14.5101 19.7339 14.3689 19.8091 14.0963L19.8951 13.7704ZM19.934 13.2407L20.5262 11.0956H18.976C18.5577 11.0956 18.095 11.4424 18.095 11.4424L18.1321 11.1083H17.3127L16.1501 15.3984C16.0948 15.6039 16.2343 15.7036 16.572 15.7036H17.4503L17.578 15.2354H17.2321C17.1425 15.2354 17.1099 15.1929 17.1334 15.1132L17.5445 13.6065H19.3002C19.6741 13.6074 19.8851 13.487 19.934 13.2407ZM23.2363 15.4636L23.4074 14.8533H23.2254L24.1001 11.7783H24.2812L24.465 11.1273C24.465 11.1273 23.6528 11.1273 23.3078 11.1273C22.9619 11.1273 22.4847 11.3673 22.4847 11.3673L22.5255 11.1273H21.5892L21.4045 11.7783H21.5847L20.71 14.8533H20.5307L20.3578 15.4636H22.1479L22.0718 15.728H22.9782L23.0543 15.4636H23.2363ZM27.0999 12.2682H24.2477L24.0783 12.8586H25.0644L24.9069 13.4064H23.9226L23.7524 13.9949H24.6615L23.9579 15.0127C23.8791 15.1068 23.7877 15.1548 23.6818 15.1548H23.4246L23.2607 15.7253H24.0919C24.3111 15.7398 24.4768 15.651 24.5818 15.4609L25.0309 14.7881L25.1631 15.4183C25.1758 15.6239 25.3207 15.7171 25.6013 15.7026H26.1455L26.3076 15.1322H26.1537C26.0496 15.1322 25.9889 15.0996 25.9753 15.0308L25.8603 14.3372H25.3686L25.5968 13.9922H26.6064L26.7766 13.4037H25.8694L26.026 12.8549H26.9333L27.0999 12.2682ZM29.6461 7.0192H28.8275L28.018 8.90619L27.9719 7.0192H27.5418L27.0302 7.02644L27.2747 10.0344C27.0691 10.4437 26.7096 11.3654 26.0459 11.5692L25.9771 12.0482C26.7676 12.0771 27.0945 11.686 27.2611 11.5167C27.4268 11.3464 27.7084 10.9806 28.0017 10.3522L29.6461 7.0192Z" fill="#CACACB"/>
</svg>
