<svg width="33" height="20" viewBox="0 0 33 20" fill="none" xmlns="http://www.w3.org/2000/svg">
<g clip-path="url(#clip0_3734_24833)">
<path d="M16.6749 2.15891C16.5471 2.25878 16.4225 2.36187 16.3001 2.46819C14.2146 4.28305 12.8948 6.9538 12.8948 9.93597C12.8948 12.9171 14.2146 15.5878 16.3001 17.4027C16.4225 17.509 16.5471 17.6121 16.6749 17.713C16.8016 17.6121 16.9272 17.509 17.0497 17.4027C19.1341 15.5878 20.4549 12.9171 20.4549 9.93597C20.4549 6.9538 19.1341 4.28305 17.0497 2.46819C16.9272 2.36187 16.8016 2.25878 16.6749 2.15891ZM22.7906 0.0390625C20.7653 0.0390625 18.8806 0.647954 17.3128 1.69284C17.3922 1.75835 17.4738 1.82278 17.5512 1.89044C19.8836 3.919 21.2206 6.85178 21.2206 9.93597C21.2206 13.0191 19.8836 15.9519 17.5522 17.9804C17.4738 18.047 17.3922 18.1125 17.3128 18.178C18.8806 19.2229 20.7653 19.8329 22.7906 19.8329C28.2567 19.8329 32.6875 15.401 32.6875 9.93597C32.6875 4.4699 28.2567 0.0390625 22.7906 0.0390625ZM15.7975 17.9804C15.8748 18.047 15.9565 18.1125 16.037 18.178C14.4681 19.2229 12.5845 19.8329 10.558 19.8329C5.09197 19.8329 0.661133 15.401 0.661133 9.93597C0.661133 4.4699 5.09197 0.0390625 10.558 0.0390625C12.5845 0.0390625 14.4681 0.647954 16.037 1.69284C15.9565 1.75835 15.8748 1.82278 15.7975 1.89044C13.4661 3.919 12.1291 6.85178 12.1291 9.93597C12.1291 13.0202 13.4661 15.9519 15.7975 17.9804Z" fill="#CACACB"/>
</g>
<defs>
<clipPath id="clip0_3734_24833">
<rect width="32.1649" height="20" fill="white" transform="translate(0.620117)"/>
</clipPath>
</defs>
</svg>
