<svg xmlns="http://www.w3.org/2000/svg" viewBox="0 0 63 20"><path d="M52.14 13.97c.37 0 .69.07.95.21a2 2 0 0 1 .67.55v-3.22h1.12v7.75h-1.12v-.62a2 2 0 0 1-.67.55c-.26.14-.58.2-.95.2s-.7-.07-1.01-.2c-.31-.13-.58-.32-.82-.56-.23-.24-.42-.53-.55-.86-.13-.33-.2-.7-.2-1.09s.07-.76.2-1.09c.13-.33.32-.62.55-.86.23-.24.51-.43.82-.56.31-.13.65-.2 1.01-.2zm-11.83-2.28c-.31-.07-.63-.11-.97-.11-.58 0-1.11.1-1.59.29-.48.2-.9.47-1.25.81-.35.35-.62.76-.81 1.24-.19.48-.29 1-.29 1.56s.1 1.08.29 1.56c.19.48.46.89.81 1.24.35.35.76.62 1.25.81.48.2 1.01.29 1.59.29a4.19 4.19 0 0 0 1.8-.41 3.475 3.475 0 0 0 1.29-1.11l-.99-.73c-.24.34-.53.61-.89.8-.36.19-.76.28-1.21.28-.38 0-.74-.07-1.06-.2-.33-.13-.61-.32-.84-.56-.24-.24-.42-.53-.56-.87-.13-.34-.2-.71-.2-1.11s.07-.78.2-1.11c.13-.34.32-.63.56-.87.24-.24.52-.43.84-.56.33-.13.68-.2 1.06-.2.45 0 .86.1 1.22.29.36.19.65.46.88.8l1.02-.68c-.15-.24-.33-.46-.55-.66-.22-.2-.46-.36-.73-.5-.27-.14-.56-.24-.87-.31zm-33.87 1.7c-.32-.2-.66-.36-1.01-.48-.35-.11-.72-.17-1.1-.17-.25 0-.48.03-.69.08-.21.05-.39.13-.54.23-.15.1-.26.22-.35.35-.08.14-.12.29-.12.47 0 .16.04.29.11.4.07.11.17.21.31.28.13.08.3.14.49.19.19.05.41.09.66.13l.52.07c.3.04.6.11.89.2.29.09.55.21.78.38.23.16.41.36.55.61.14.24.21.54.21.89 0 .38-.08.72-.24 1.02-.16.29-.38.54-.66.74-.28.2-.6.35-.96.46-.36.1-.75.16-1.16.16-.25 0-.52-.02-.79-.06-.27-.04-.54-.11-.81-.19a5.16 5.16 0 0 1-.77-.31c-.24-.13-.46-.27-.66-.44l.66-.97c.13.12.28.23.47.33.18.1.38.19.58.26.21.07.42.13.65.17.22.04.45.06.66.06.25 0 .48-.02.69-.08.21-.05.4-.12.56-.22.16-.1.28-.21.37-.35.09-.14.14-.29.14-.47 0-.29-.14-.52-.43-.67-.29-.15-.71-.27-1.26-.34l-.59-.08c-.28-.04-.55-.1-.82-.19-.27-.09-.51-.22-.72-.38-.21-.16-.38-.37-.51-.61-.13-.25-.19-.54-.19-.9 0-.38.08-.71.23-1 .16-.29.37-.54.64-.74.27-.2.58-.35.94-.45.36-.1.74-.16 1.15-.16.55 0 1.04.07 1.49.22.44.15.85.34 1.23.59l-.62.98zm4.1.58c.36 0 .69.07.99.2.3.13.56.32.77.55.21.24.38.52.5.86.12.33.18.7.18 1.1v.22c0 .07 0 .14-.02.2H9.15c.04.23.1.43.2.6a1.327 1.327 0 0 0 .81.64c.17.05.34.08.53.08.26 0 .52-.05.78-.14.26-.1.5-.23.71-.4l.56.8c-.32.27-.65.46-1 .57-.35.11-.72.16-1.12.16s-.74-.06-1.06-.19c-.32-.13-.6-.31-.83-.55-.23-.24-.41-.52-.54-.86-.13-.33-.19-.7-.19-1.11s.06-.77.19-1.1c.13-.33.3-.62.53-.86.23-.24.5-.42.81-.55.31-.13.66-.2 1.04-.2zm-.56 1.09c.16-.06.33-.09.53-.09.36 0 .65.11.88.33.23.22.37.53.43.94H9.15c.03-.19.08-.36.15-.51.07-.16.16-.29.28-.4.11-.11.25-.2.4-.26zm6.51-1.09c.39 0 .75.07 1.08.21.33.14.61.34.84.62l-.72.77c-.18-.17-.37-.3-.57-.4s-.42-.14-.67-.14c-.22 0-.42.04-.6.12-.19.08-.35.19-.48.34-.14.15-.24.32-.32.52-.08.2-.12.43-.12.67s.04.47.12.67c.08.2.18.38.32.52s.3.26.48.34c.19.08.39.12.6.12.25 0 .48-.05.69-.15.22-.1.41-.23.57-.38l.69.77c-.24.27-.52.48-.85.62-.33.14-.69.21-1.08.21-.41 0-.78-.07-1.11-.21-.33-.14-.62-.33-.85-.57-.24-.24-.42-.53-.55-.86-.13-.33-.19-.69-.19-1.08s.06-.75.19-1.08c.13-.33.31-.62.55-.86.24-.24.52-.43.85-.57.33-.14.7-.21 1.11-.21zm7.48 4.16c.14-.29.2-.65.2-1.05v-2.97h-1.13v2.87c0 .25-.03.46-.1.63-.06.17-.15.31-.27.42-.11.11-.25.19-.4.23-.15.05-.32.07-.49.07s-.34-.02-.49-.07c-.15-.05-.29-.13-.4-.23-.11-.11-.2-.25-.27-.42-.06-.17-.1-.38-.1-.63v-2.87h-1.13v2.97c0 .41.07.76.2 1.05.13.29.31.53.54.72.22.19.48.32.77.41.29.09.58.13.88.13s.6-.04.88-.13c.29-.09.54-.22.76-.41.22-.19.4-.43.54-.72zm4.31-4.16c.17 0 .33.01.46.03.14.02.27.06.4.11l-.27 1.11c-.12-.06-.26-.11-.41-.14-.16-.03-.31-.05-.44-.05-.18 0-.34.03-.49.09-.15.06-.28.15-.39.27-.11.12-.19.26-.25.44-.06.17-.09.37-.09.59v2.84h-1.12v-5.15h1.11v.58c.17-.25.39-.43.64-.54.25-.12.54-.17.85-.17zm4.76.2c-.3-.13-.63-.2-.99-.2-.38 0-.73.07-1.04.2-.31.13-.58.32-.81.55-.23.24-.4.52-.53.86-.13.33-.19.7-.19 1.1s.06.78.19 1.11c.13.33.31.62.54.86.23.24.51.42.83.55.32.13.68.19 1.06.19s.76-.05 1.12-.16c.35-.11.69-.3 1-.57l-.56-.8c-.22.17-.45.31-.71.4-.26.1-.52.14-.78.14-.18 0-.36-.02-.53-.08-.17-.05-.32-.13-.46-.23-.14-.11-.25-.24-.35-.41-.1-.16-.16-.36-.2-.6h3.81c0-.06.01-.13.02-.2v-.22c0-.4-.06-.77-.18-1.1-.12-.33-.29-.62-.5-.86-.21-.24-.47-.42-.77-.55zm-1.01.8c-.2 0-.38.03-.53.09-.16.06-.29.15-.4.26-.11.11-.21.25-.28.4-.07.16-.12.33-.15.51h2.67c-.06-.4-.2-.71-.43-.94-.23-.22-.52-.33-.88-.33zm13.95-1c.4 0 .77.07 1.1.21.34.14.63.33.88.57.25.24.44.53.58.86.14.33.21.69.21 1.08s-.07.75-.21 1.08c-.14.33-.33.62-.58.86-.25.24-.54.43-.88.57-.34.14-.71.21-1.1.21s-.77-.07-1.11-.21c-.34-.14-.63-.33-.88-.57a2.56 2.56 0 0 1-.58-.86c-.14-.33-.21-.69-.21-1.08s.07-.75.21-1.08c.14-.33.33-.62.58-.86.25-.24.54-.43.88-.57.34-.14.71-.21 1.11-.21zm-.64 1.18c.2-.08.41-.12.64-.12s.44.04.64.12c.2.08.37.19.51.34.15.15.26.32.34.52.08.2.12.43.12.67s-.04.47-.12.67c-.08.2-.2.38-.34.52-.14.15-.32.26-.51.34-.2.08-.41.12-.64.12s-.44-.04-.64-.12c-.2-.08-.37-.19-.51-.34-.14-.15-.26-.32-.34-.52-.08-.2-.12-.43-.12-.67s.04-.47.12-.67c.08-.2.2-.38.34-.52.14-.15.31-.26.51-.34zm6.28.01c.19-.09.41-.13.65-.13s.44.04.63.13c.19.08.35.2.49.35.14.15.24.32.32.52.08.2.11.42.11.66s-.04.46-.11.66a1.52 1.52 0 0 1-1.44 1c-.24 0-.46-.04-.65-.13s-.35-.21-.49-.36c-.13-.15-.23-.32-.31-.52a1.91 1.91 0 0 1 0-1.28c.07-.2.17-.38.31-.52.13-.15.29-.27.49-.36zm7-1.19c.36 0 .69.07.99.2.3.13.56.32.77.55.21.24.38.52.5.86.12.33.18.7.18 1.1v.22c0 .07 0 .14-.02.2h-3.81c.04.23.1.43.2.6a1.327 1.327 0 0 0 .81.64c.17.05.34.08.53.08.26 0 .52-.05.78-.14.26-.1.5-.23.71-.4l.56.8c-.32.27-.65.46-1 .57-.35.11-.72.16-1.12.16s-.74-.06-1.06-.19c-.32-.13-.6-.31-.83-.55-.23-.24-.41-.52-.54-.86-.13-.33-.19-.7-.19-1.11s.06-.77.19-1.1c.13-.33.3-.62.53-.86.23-.24.5-.42.81-.55.31-.13.66-.2 1.04-.2zm-.56 1.09c.16-.06.33-.09.54-.09.36 0 .65.11.88.33.23.22.37.53.43.94h-2.67c.03-.19.08-.36.15-.51.07-.16.16-.29.28-.4.11-.11.25-.2.4-.26zM58.26 3.15c.38 0 .71.07.99.22.28.14.51.33.69.57V.6h1.17v8.04h-1.17V8c-.19.24-.42.43-.69.57-.28.14-.6.21-.99.21s-.73-.07-1.05-.21c-.32-.14-.61-.33-.85-.58-.24-.25-.43-.55-.57-.89-.14-.34-.21-.72-.21-1.13s.07-.79.21-1.13c.14-.34.33-.64.57-.89.24-.25.52-.44.85-.58.32-.14.67-.21 1.05-.21zM8.88 8.63h1.26V.82H8.2L5.93 6.4 3.67.82H1.73v7.81h1.26V2.26l2.28 5.6H6.6l2.28-5.67v6.43zm6.73 0h1.17V3.29h-1.17v.65a2.11 2.11 0 0 0-.69-.57c-.28-.14-.6-.22-.99-.22s-.73.07-1.05.21c-.32.14-.61.33-.85.58-.24.25-.43.55-.57.89-.14.34-.21.72-.21 1.13s.07.79.21 1.13c.14.34.33.64.57.89.24.25.52.44.85.58.32.14.67.21 1.05.21s.71-.07.99-.21c.28-.14.51-.33.69-.57v.64zm-1.54-4.39c-.25 0-.48.05-.68.14-.2.09-.37.21-.5.37-.14.15-.24.34-.32.54a2.03 2.03 0 0 0 0 1.32c.07.21.18.39.32.54.14.15.31.28.5.37.2.09.42.14.68.14s.46-.04.66-.13.37-.21.51-.36.25-.33.33-.54c.08-.21.12-.44.12-.68s-.04-.47-.12-.68c-.08-.21-.19-.39-.33-.54-.14-.15-.31-.27-.51-.36-.2-.09-.42-.13-.66-.13zm7.76.23c.12.05.22.11.3.15l.5-.91c-.28-.18-.6-.32-.98-.42-.37-.1-.77-.15-1.19-.15-.34 0-.65.04-.92.12-.27.08-.5.19-.69.34-.19.15-.34.33-.44.54-.1.21-.15.45-.15.71 0 .43.15.78.46 1.05.31.27.76.44 1.35.52l.56.07c.32.04.55.12.7.21.15.1.22.22.22.38 0 .2-.1.36-.31.48-.2.12-.51.18-.91.18a2.928 2.928 0 0 1-1.06-.16c-.14-.05-.27-.11-.38-.17-.11-.07-.22-.13-.32-.21l-.54.88c.19.14.4.26.61.35.21.09.42.16.62.21.2.05.4.08.58.1.18.02.34.02.48.02.38 0 .73-.04 1.03-.13.3-.09.56-.21.76-.36a1.514 1.514 0 0 0 .63-1.26c0-.46-.16-.81-.49-1.07-.33-.26-.78-.43-1.37-.51l-.55-.08c-.12-.02-.24-.04-.35-.06-.11-.02-.2-.06-.28-.1a.494.494 0 0 1-.19-.16.35.35 0 0 1-.07-.23c0-.19.09-.34.26-.46.18-.12.42-.18.74-.18.17 0 .33.01.49.04.16.03.31.07.46.11.14.04.28.09.4.15zm5.83-.13h-2.05v2.33c0 .18.02.33.07.46.04.13.11.23.18.31a.8.8 0 0 0 .27.18c.1.04.21.06.33.06.18 0 .37-.03.55-.11.19-.07.36-.16.52-.26l.46.93c-.22.15-.46.27-.73.37-.27.1-.57.16-.91.16-.61 0-1.08-.17-1.41-.51-.34-.34-.5-.86-.5-1.57V4.34h-1.07V3.28h1.07V1.66h1.17v1.62h2.05v1.06zm4.61-1c-.31-.14-.65-.2-1.02-.2-.39 0-.75.07-1.08.2-.33.14-.61.33-.84.58-.23.25-.42.54-.55.89-.13.35-.2.73-.2 1.14s.07.81.2 1.16c.13.35.32.64.56.89.24.25.53.44.86.57.33.13.7.2 1.1.2s.79-.06 1.16-.17c.37-.11.71-.31 1.04-.59l-.58-.83c-.22.18-.47.32-.74.42-.27.1-.54.15-.81.15-.19 0-.37-.03-.55-.08a1.397 1.397 0 0 1-.83-.66c-.1-.17-.17-.38-.21-.62h3.95c0-.07.01-.14.02-.21v-.22c0-.42-.06-.8-.19-1.14-.12-.34-.3-.64-.52-.89a2.32 2.32 0 0 0-.8-.58zm-1.05.83c-.21 0-.39.03-.56.09-.16.06-.3.15-.42.27-.12.12-.21.26-.29.42-.07.16-.13.34-.16.53h2.77c-.06-.42-.21-.74-.45-.97-.23-.23-.54-.35-.91-.35zm7.07-1c-.14-.02-.3-.04-.48-.04-.33 0-.62.06-.89.18-.26.12-.48.31-.66.56v-.6h-1.15v5.35h1.17V5.68c0-.23.03-.43.09-.61s.15-.33.26-.45c.11-.12.25-.22.4-.28.16-.06.33-.09.51-.09.14 0 .29.02.46.05.16.03.31.08.43.15l.28-1.16c-.13-.05-.27-.09-.42-.11zm3.5-.04c.4 0 .78.07 1.12.22.35.14.64.36.88.64l-.75.8c-.19-.18-.39-.32-.59-.41-.21-.09-.44-.14-.69-.14-.22 0-.43.04-.62.13-.19.08-.36.2-.5.35-.14.15-.25.33-.33.54-.08.21-.12.44-.12.7s.04.48.12.69c.08.21.19.39.33.54.14.15.31.27.5.35.19.08.4.13.62.13.26 0 .5-.05.72-.16.22-.11.42-.24.59-.4l.72.8c-.24.28-.54.5-.88.64-.34.14-.71.22-1.12.22-.42 0-.81-.07-1.15-.22-.35-.14-.64-.34-.89-.59-.25-.25-.43-.55-.57-.89-.13-.34-.2-.71-.2-1.12s.07-.77.2-1.12c.13-.34.32-.64.57-.89.25-.25.54-.45.89-.59.35-.14.73-.22 1.15-.22zm7.04 5.49H50V3.29h-1.17v.65a2.11 2.11 0 0 0-.69-.57c-.28-.14-.6-.22-.99-.22s-.73.07-1.05.21c-.32.14-.61.33-.85.58-.24.25-.43.55-.57.89-.14.34-.21.72-.21 1.13s.07.79.21 1.13c.14.34.33.64.57.89.24.25.52.44.85.58.32.14.67.21 1.05.21s.71-.07.99-.21c.27-.14.51-.33.69-.57v.64zm-1.54-4.39c-.25 0-.48.05-.68.14-.2.09-.37.21-.5.37-.14.15-.24.34-.32.54a2.03 2.03 0 0 0 0 1.32c.07.21.18.39.32.54.14.15.31.28.5.37.2.09.42.14.68.14s.46-.04.66-.13.37-.21.51-.36.25-.33.33-.54c.08-.21.12-.44.12-.68s-.04-.47-.12-.68c-.08-.21-.19-.39-.33-.54-.14-.15-.31-.27-.51-.36-.2-.09-.42-.13-.66-.13zm7.61-1.06c-.14-.02-.3-.04-.48-.04-.33 0-.62.06-.89.18-.26.12-.49.31-.66.56v-.6h-1.15v5.35h1.17V5.68c0-.23.03-.43.09-.61s.15-.33.26-.45c.11-.12.25-.22.4-.28.16-.06.33-.09.51-.09.14 0 .29.02.46.05.16.03.31.08.43.15l.28-1.16c-.13-.05-.27-.09-.42-.11zm2.81 1.2c.2-.09.42-.14.68-.14s.46.04.66.13.37.21.51.36.25.33.33.54c.08.21.12.44.12.68s-.04.47-.12.68c-.08.21-.19.39-.33.54-.14.15-.31.27-.51.36-.2.09-.42.13-.66.13s-.48-.05-.68-.14c-.2-.09-.37-.21-.5-.37-.14-.15-.24-.34-.32-.54a2.03 2.03 0 0 1 0-1.32c.07-.21.18-.39.32-.54.14-.15.31-.28.5-.37z" fill="#cacacb" fill-rule="evenodd"/></svg>