<svg width="64" height="21" viewBox="0 0 64 21" fill="none" xmlns="http://www.w3.org/2000/svg">
<g clip-path="url(#clip0_4934_35507)">
<path d="M41.7117 0.960938C37.2531 0.960938 33.2687 3.22566 33.2687 7.4099C33.2687 12.2084 40.3352 12.5399 40.3352 14.9505C40.3352 15.9655 39.1482 16.8741 37.1209 16.8741C34.2437 16.8741 32.0933 15.6046 32.0933 15.6046L31.1732 19.8269C31.1732 19.8269 33.6504 20.8993 36.9393 20.8993C41.814 20.8993 45.6499 18.5234 45.6499 14.2676C45.6499 9.19711 38.5539 8.87553 38.5539 6.63804C38.5539 5.84292 39.5283 4.9717 41.5498 4.9717C43.8307 4.9717 45.6916 5.89504 45.6916 5.89504L46.5921 1.81695C46.5921 1.81695 44.5672 0.960938 41.7117 0.960938ZM0.919485 1.26872L0.811523 1.88428C0.811523 1.88428 2.68728 2.2207 4.3767 2.89178C6.55198 3.66131 6.70693 4.10929 7.07329 5.5007L11.0654 20.5819H16.4169L24.6612 1.26872H19.322L14.0245 14.3999L11.8628 3.26929C11.6646 1.9954 10.6604 1.26872 9.43126 1.26872H0.919485ZM26.8081 1.26872L22.6197 20.5819H27.7111L31.8848 1.26872H26.8081ZM55.2044 1.26872C53.9767 1.26872 53.3263 1.91285 52.8489 3.03846L45.3898 20.5819H50.729L51.762 17.658H58.2666L58.8948 20.5819H63.6058L59.4959 1.26872H55.2044ZM55.8988 6.48656L57.4815 13.7338H53.2415L55.8988 6.48656Z" fill="#CACACB"/>
</g>
<defs>
<clipPath id="clip0_4934_35507">
<rect width="62.8571" height="20" fill="white" transform="translate(0.780273 0.929688)"/>
</clipPath>
</defs>
</svg>
