<svg width="92" height="20" viewBox="0 0 92 20" fill="none" xmlns="http://www.w3.org/2000/svg">
<path d="M33.4352 10.9283C33.4352 13.2602 31.7126 14.9056 29.3033 14.9056C27.0319 14.9056 25.1562 13.4274 25.1562 10.5165V9.08374C25.1562 6.27953 26.5134 4.24172 29.0285 3.76945L32.7445 3.30811V4.80138L29.3789 5.20138C27.8546 5.50643 26.9243 6.48037 26.8327 8.50727C27.4117 7.34928 28.5403 7.04088 29.5773 7.04088C31.8042 7.04172 33.4352 8.61147 33.4352 10.9283ZM31.7277 10.9131C31.7277 9.51147 30.7218 8.50558 29.3193 8.50558C27.9016 8.50558 26.8957 9.51147 26.8957 10.9131C26.8957 12.3459 27.9016 13.3358 29.3193 13.3358C30.7218 13.3358 31.7277 12.3451 31.7277 10.9131Z" fill="#CACACB"/>
<path d="M42.5058 11.3855C42.5117 11.1359 42.5058 10.8973 42.489 10.667C42.2949 8.10317 40.6697 6.69141 38.4689 6.69141C36.1176 6.69141 34.4319 8.47376 34.4319 10.8217C34.4319 13.2889 36.1924 14.9208 38.5915 14.9208C40.3647 14.9208 41.7747 13.8838 42.263 12.5519H40.5798C40.1915 13.078 39.5344 13.4738 38.6058 13.4738C37.3 13.4738 36.284 12.6191 36.1773 11.3855H42.5058ZM36.1789 10.0595C36.2689 8.93258 37.226 8.10905 38.4697 8.10905C39.7613 8.10905 40.6705 8.94687 40.7168 10.0595H36.1789Z" fill="#CACACB"/>
<path d="M43.0915 13.2594C43.7016 13.2291 44.3411 12.8938 44.3411 11.6291V6.85938H50.5504V14.7686H48.8277V8.414H46.0344V11.6602C46.0344 13.8543 44.7386 14.8451 43.0764 14.8148L43.0915 13.2594Z" fill="#CACACB"/>
<path d="M55.2579 10.5475L59.0486 6.8584H57.0419L54.9461 8.89285L53.7663 10.0382V6.8584H53.7394H52.1444H52.0427V14.7676H52.1444H53.7394H53.7663V11.0584L54.9276 12.3651L57.0578 14.7676H59.0629L55.2579 10.5475Z" fill="#CACACB"/>
<path d="M65.9421 6.85118L65.7328 8.02597C65.0538 7.19572 63.8866 6.69824 62.8362 6.69824C62.8236 6.69824 62.8126 6.69992 62.8 6.69992C62.7815 6.69992 62.7639 6.69824 62.7446 6.69824C61.6026 6.69824 60.6731 7.11589 60.0076 7.79572C59.9757 7.82765 59.942 7.85959 59.911 7.89236C59.8925 7.91253 59.8748 7.93522 59.8572 7.95623C59.216 8.68144 58.8572 9.66883 58.8572 10.7974C58.8572 10.8024 58.858 10.8075 58.858 10.8125C58.858 10.8176 58.8572 10.8226 58.8572 10.8277C58.8572 11.9562 59.216 12.9445 59.8572 13.6688C59.8757 13.6898 59.8925 13.7117 59.911 13.7327C59.942 13.7663 59.9757 13.7974 60.0076 13.8293C60.6731 14.5092 61.6026 14.9268 62.7446 14.9268C62.7631 14.9268 62.7815 14.9251 62.8 14.9251C62.8126 14.9251 62.8236 14.9268 62.8362 14.9268C63.8866 14.9268 65.0538 14.4293 65.7328 13.5991V14.7739H67.4857V14.7587V6.86715V6.85202H65.9421V6.85118ZM63.1866 13.3436C61.6925 13.3436 60.6252 12.2924 60.6252 10.8142C60.6252 9.33606 61.6925 8.2848 63.1866 8.2848C64.6656 8.2848 65.7177 9.38228 65.7177 10.8142C65.7177 12.2461 64.6656 13.3436 63.1866 13.3436Z" fill="#CACACB"/>
<path d="M68.9746 6.85083V6.86596V18.3206V18.3357H70.7276V13.5996C71.4065 14.4298 72.5738 14.9273 73.6242 14.9273C73.6368 14.9273 73.6477 14.9256 73.6603 14.9256C73.6788 14.9256 73.6965 14.9273 73.7158 14.9273C74.8578 14.9273 75.7872 14.5097 76.4528 13.8298C76.4847 13.7979 76.5183 13.766 76.5494 13.7332C76.5679 13.713 76.5855 13.6903 76.6032 13.6693C77.2444 12.9441 77.6032 11.9567 77.6032 10.8281C77.6032 10.8231 77.6023 10.8181 77.6023 10.813C77.6023 10.808 77.6032 10.8029 77.6032 10.7979C77.6032 9.66932 77.2444 8.68108 76.6032 7.95671C76.5847 7.93571 76.5679 7.91386 76.5494 7.89285C76.5183 7.85923 76.4847 7.82814 76.4528 7.79621C75.7872 7.11638 74.8578 6.69873 73.7158 6.69873C73.6973 6.69873 73.6788 6.70041 73.6603 6.70041C73.6477 6.70041 73.6368 6.69873 73.6242 6.69873C72.5738 6.69873 71.4065 7.19621 70.7276 8.02646L70.5183 6.85167H68.9746V6.85083ZM70.7435 10.813C70.7435 9.38024 71.7956 8.2836 73.2746 8.2836C74.7687 8.2836 75.836 9.33486 75.836 10.813C75.836 12.2912 74.7687 13.3424 73.2746 13.3424C71.7956 13.3433 70.7435 12.2458 70.7435 10.813Z" fill="#CACACB"/>
<path d="M90.6579 9.83475V14.7784H88.9176V10.2768C88.9176 8.84232 88.1848 8.20114 87.2075 8.20114C86.1999 8.20114 85.4369 8.87257 85.4369 10.2768V14.7784H83.6966V10.2768C83.6966 8.84232 82.9487 8.20114 82.0016 8.20114C80.9789 8.20114 80.2159 8.87257 80.2159 10.2768V14.7784H78.4604V6.85912H79.9915L80.1899 8.00114C80.6478 7.19274 81.4067 6.69189 82.5823 6.69189C83.6504 6.69189 84.526 7.13139 84.9991 8.00114C85.5184 7.19274 86.3831 6.69189 87.6655 6.69189C89.452 6.69105 90.6579 7.89694 90.6579 9.83475Z" fill="#CACACB"/>
<path d="M9.56291 15.4723L6.47132 18.5043C6.26375 18.7076 6.26711 18.9681 6.33854 19.1446C6.40997 19.3211 6.59064 19.5093 6.88056 19.5101L12.3209 19.5278C12.7394 19.5295 13.0864 19.19 13.094 18.7706C13.094 18.7488 13.0948 18.7261 13.0948 18.7034C13.0982 17.5118 12.6251 16.3454 11.7906 15.4942C11.1814 14.874 10.1831 14.8639 9.56291 15.4723Z" fill="#CACACB"/>
<path d="M6.01336 13.1661L1.6831 13.124C1.39319 13.1215 1.21083 13.3072 1.13688 13.4829C1.06294 13.6585 1.05705 13.919 1.26125 14.1249L5.09571 17.9837C5.39067 18.2804 5.87638 18.2854 6.17722 17.9955C6.19319 17.9804 6.20915 17.9644 6.22512 17.9484C7.0705 17.1081 7.56041 15.9493 7.57218 14.7568C7.58058 13.8879 6.88142 13.1745 6.01336 13.1661Z" fill="#CACACB"/>
<path d="M1.83527 12.5561C1.85796 12.5561 1.87981 12.5569 1.9025 12.5569C3.0941 12.5603 4.26048 12.0871 5.11174 11.2527C5.73191 10.6451 5.74116 9.64597 5.13359 9.0258L2.10166 5.93421C1.8983 5.72664 1.6378 5.73 1.46132 5.80143C1.28485 5.87286 1.09662 6.05353 1.09578 6.34345L1.07813 11.7829C1.07645 12.2014 1.41595 12.5485 1.83527 12.5561Z" fill="#CACACB"/>
<path d="M2.65718 5.68801C3.49751 6.53339 4.65634 7.0233 5.84877 7.03507C6.71684 7.04347 7.43028 6.34431 7.43869 5.47625L7.48071 1.14599C7.48323 0.856078 7.29751 0.673725 7.12188 0.599775C6.94625 0.525826 6.68575 0.519943 6.47986 0.724145L2.62188 4.5586C2.32524 4.85356 2.3202 5.33927 2.61012 5.64011C2.62608 5.65608 2.64121 5.67204 2.65718 5.68801Z" fill="#CACACB"/>
<path d="M11.579 4.59648L14.6706 1.56455C14.8781 1.36119 14.8748 1.10069 14.8033 0.924215C14.7319 0.747745 14.5512 0.559509 14.2613 0.558669L8.82182 0.541022C8.40333 0.539341 8.05627 0.878837 8.04871 1.29816C8.04871 1.32085 8.04787 1.3427 8.04787 1.36539C8.04451 2.55699 8.51762 3.72337 9.35207 4.57464C9.96047 5.1948 10.9596 5.20405 11.579 4.59648Z" fill="#CACACB"/>
<path d="M15.1295 6.90144L19.4597 6.94346C19.7496 6.94598 19.932 6.76027 20.0059 6.58464C20.0799 6.40901 20.0858 6.1485 19.8816 5.94262L16.0471 2.0838C15.7522 1.78716 15.2664 1.78211 14.9656 2.07203C14.9496 2.08716 14.9337 2.10312 14.9177 2.11909C14.0723 2.95943 13.5824 4.11825 13.5706 5.31069C13.5614 6.18043 14.2614 6.89304 15.1295 6.90144Z" fill="#CACACB"/>
<path d="M19.3074 7.5116C19.2847 7.5116 19.2629 7.51076 19.2402 7.51076C18.0486 7.5074 16.8822 7.98051 16.031 8.81496C15.4108 9.42252 15.4016 10.4217 16.0091 11.0419L19.0411 14.1334C19.2444 14.341 19.5049 14.3377 19.6814 14.2662C19.8579 14.1948 20.0461 14.0141 20.0469 13.7242L20.0646 8.28387C20.0654 7.86622 19.7259 7.51916 19.3074 7.5116Z" fill="#CACACB"/>
<path d="M18.4849 14.3803C17.6446 13.535 16.4858 13.045 15.2933 13.0333C14.4253 13.0249 13.7118 13.724 13.7034 14.5921L13.6614 18.9224C13.6589 19.2123 13.8446 19.3946 14.0202 19.4686C14.1959 19.5425 14.4564 19.5484 14.6622 19.3442L18.5211 15.5097C18.8177 15.2148 18.8227 14.7291 18.5328 14.4282C18.5169 14.4123 18.5009 14.3955 18.4849 14.3803Z" fill="#CACACB"/>
</svg>
