<?xml version="1.0" encoding="utf-8"?>
<!-- Generator: Adobe Illustrator 27.3.1, SVG Export Plug-In . SVG Version: 6.00 Build 0)  -->
<svg version="1.1" id="Слой_1" xmlns="http://www.w3.org/2000/svg" xmlns:xlink="http://www.w3.org/1999/xlink" x="0px" y="0px"
	 viewBox="0 0 51 20" style="enable-background:new 0 0 51 20;" xml:space="preserve">
<style type="text/css">
	.st0{fill:#CACACB;}
</style>
<path class="st0" d="M11.5,15.4c-0.6-0.6-1.6-0.6-2.2,0l-3,3c-0.2,0.2-0.2,0.5-0.1,0.6c0.1,0.2,0.2,0.4,0.5,0.4l5.3,0
	c0.4,0,0.8-0.3,0.8-0.7c0,0,0,0,0-0.1C12.8,17.4,12.3,16.2,11.5,15.4z"/>
<path class="st0" d="M7.4,14.7c0-0.9-0.7-1.6-1.5-1.6l-4.3,0c-0.3,0-0.5,0.2-0.5,0.4C1,13.6,1,13.8,1.2,14l3.8,3.8
	c0.3,0.3,0.8,0.3,1.1,0c0,0,0,0,0,0C6.9,17,7.4,15.8,7.4,14.7z"/>
<path class="st0" d="M4.9,11.2C5.6,10.6,5.6,9.6,5,9L2,6C1.8,5.8,1.5,5.8,1.4,5.9C1.2,5.9,1,6.1,1,6.4l0,5.3c0,0.4,0.3,0.8,0.7,0.8
	c0,0,0,0,0.1,0C3,12.5,4.1,12,4.9,11.2z"/>
<path class="st0" d="M9.1,4.7c0.6,0.6,1.6,0.6,2.2,0l3-3c0.2-0.2,0.2-0.5,0.1-0.6c-0.1-0.2-0.2-0.4-0.5-0.4l-5.3,0
	C8.2,0.7,7.8,1,7.8,1.4c0,0,0,0,0,0.1C7.8,2.7,8.3,3.8,9.1,4.7z"/>
<path class="st0" d="M13.3,5.4c0,0.9,0.7,1.6,1.5,1.6L19,7c0.3,0,0.5-0.2,0.5-0.4c0.1-0.2,0.1-0.4-0.1-0.6l-3.8-3.8
	c-0.3-0.3-0.8-0.3-1.1,0c0,0,0,0,0,0C13.7,3.1,13.3,4.2,13.3,5.4z"/>
<path class="st0" d="M15.7,8.8c-0.6,0.6-0.6,1.6,0,2.2l3,3c0.2,0.2,0.5,0.2,0.6,0.1c0.2-0.1,0.4-0.2,0.4-0.5l0-5.3
	c0-0.4-0.3-0.8-0.7-0.8c0,0,0,0-0.1,0C17.7,7.5,16.5,8,15.7,8.8z"/>
<path class="st0" d="M14.9,13c-0.9,0-1.6,0.7-1.6,1.5l0,4.3c0,0.3,0.2,0.5,0.4,0.5c0.2,0.1,0.4,0.1,0.6-0.1l3.8-3.8
	c0.3-0.3,0.3-0.8,0-1.1c0,0,0,0,0,0C17.3,13.5,16.1,13,14.9,13z"/>
<path class="st0" d="M6.7,3.4V3.1c0-0.8-0.6-1.4-1.4-1.4C4.6,1.6,3.9,2.3,3.9,3v0.3C3.4,3.6,3.1,4,3.1,4.5v0.8
	c0,0.7,0.5,1.2,1.2,1.2h0.4c0.1,0,0.1-0.1,0.2-0.1l0.2-1.2c0,0,0-0.1,0-0.1C4.9,5,4.8,4.8,4.8,4.6c0-0.2,0.2-0.4,0.5-0.5
	c0.3,0,0.6,0.2,0.6,0.5c0,0.2-0.1,0.4-0.3,0.4c0,0,0,0.1,0,0.1l0.2,1.2c0,0.1,0.1,0.1,0.2,0.1h0.4C7,6.5,7.5,6,7.5,5.3V4.5
	C7.5,4,7.2,3.6,6.7,3.4z M6.4,3.3c0,0-0.1,0-0.1,0h-2c0,0-0.1,0-0.1,0V3c0-0.6,0.5-1.1,1.1-1.1c0.6,0,1.1,0.5,1.1,1.1V3.3z"/>
<path class="st0" d="M28,5.3c0,0.9-0.6,1.4-1.5,1.4c-0.8,0-1.5-0.5-1.5-1.6V4.7c0-1,0.5-1.8,1.4-1.9l1.4-0.2v0.5l-1.2,0.1
	c-0.6,0.1-0.9,0.5-0.9,1.2c0.2-0.4,0.6-0.5,1-0.5C27.4,3.9,28,4.5,28,5.3z M27.3,5.3c0-0.5-0.4-0.9-0.9-0.9c-0.5,0-0.9,0.4-0.9,0.9
	c0,0.5,0.4,0.9,0.9,0.9C27,6.2,27.3,5.9,27.3,5.3z"/>
<path class="st0" d="M31.3,5.5c0-0.1,0-0.2,0-0.3c-0.1-0.9-0.7-1.4-1.5-1.4c-0.9,0-1.5,0.6-1.5,1.5c0,0.9,0.6,1.5,1.5,1.5
	c0.6,0,1.2-0.4,1.3-0.9h-0.6c-0.1,0.2-0.4,0.3-0.7,0.3C29.4,6.3,29,6,29,5.5H31.3z M29,5c0-0.4,0.4-0.7,0.8-0.7
	c0.5,0,0.8,0.3,0.8,0.7H29z"/>
<path class="st0" d="M31.5,6.2c0.2,0,0.5-0.1,0.5-0.6V3.9h2.3v2.9h-0.6V4.4h-1v1.2c0,0.8-0.5,1.2-1.1,1.1L31.5,6.2z"/>
<path class="st0" d="M35.9,5.2l1.4-1.3h-0.7l-0.8,0.7L35.4,5V3.9h0h-0.6h0v2.9h0h0.6h0V5.4l0.4,0.5l0.8,0.9h0.7L35.9,5.2z"/>
<path class="st0" d="M39.8,3.9l-0.1,0.4C39.5,4,39,3.8,38.7,3.8c0,0,0,0,0,0c0,0,0,0,0,0c-0.4,0-0.8,0.2-1,0.4c0,0,0,0,0,0
	c0,0,0,0,0,0c-0.2,0.3-0.4,0.6-0.4,1v0v0c0,0.4,0.1,0.8,0.4,1c0,0,0,0,0,0c0,0,0,0,0,0c0.2,0.2,0.6,0.4,1,0.4c0,0,0,0,0,0
	c0,0,0,0,0,0c0.4,0,0.8-0.2,1.1-0.5v0.4h0.6v0V3.9v0H39.8z M38.8,6.2c-0.5,0-0.9-0.4-0.9-0.9s0.4-0.9,0.9-0.9c0.5,0,0.9,0.4,0.9,0.9
	S39.3,6.2,38.8,6.2z"/>
<path class="st0" d="M40.9,3.9L40.9,3.9V8v0h0.6V6.3c0.2,0.3,0.7,0.5,1.1,0.5c0,0,0,0,0,0c0,0,0,0,0,0c0.4,0,0.8-0.2,1-0.4
	c0,0,0,0,0,0c0,0,0,0,0,0c0.2-0.3,0.4-0.6,0.4-1v0v0c0-0.4-0.1-0.8-0.4-1c0,0,0,0,0,0c0,0,0,0,0,0c-0.2-0.2-0.6-0.4-1-0.4
	c0,0,0,0,0,0c0,0,0,0,0,0c-0.4,0-0.8,0.2-1.1,0.5l-0.1-0.4H40.9z M41.5,5.3c0-0.5,0.4-0.9,0.9-0.9c0.5,0,0.9,0.4,0.9,0.9
	S43,6.2,42.5,6.2C41.9,6.2,41.5,5.8,41.5,5.3z"/>
<path class="st0" d="M48.8,4.9v1.8h-0.6V5.1c0-0.5-0.3-0.8-0.6-0.8c-0.4,0-0.6,0.2-0.6,0.8v1.6h-0.6V5.1c0-0.5-0.3-0.8-0.6-0.8
	c-0.4,0-0.7,0.2-0.7,0.8v1.6h-0.6V3.9h0.6L45,4.3c0.2-0.3,0.4-0.5,0.9-0.5c0.4,0,0.7,0.2,0.9,0.5c0.2-0.3,0.5-0.5,1-0.5
	C48.4,3.8,48.8,4.2,48.8,4.9z"/>
<path class="st0" d="M27.1,8.9h0.5v2.8h-0.6V9.9l-1.5,1.9H25V8.9h0.6v1.9L27.1,8.9z"/>
<path class="st0" d="M30.2,8.9h0.6v2.8h-0.6v-1h-1.4v1h-0.6V8.9h0.6v1.2h1.4V8.9z"/>
<path class="st0" d="M47.7,11.8V9.4h-0.9V8.9h2.4v0.5h-0.9v2.3H47.7z"/>
<path class="st0" d="M36.6,10.6c0-0.1,0-0.2,0-0.3c-0.1-0.9-0.6-1.4-1.4-1.4c-0.8,0-1.4,0.6-1.4,1.5c0,0.9,0.6,1.5,1.5,1.5
	c0.6,0,1.1-0.4,1.3-0.8h-0.6c-0.1,0.2-0.4,0.3-0.7,0.3c-0.5,0-0.8-0.3-0.9-0.7H36.6z M34.3,10.1c0-0.4,0.4-0.7,0.8-0.7
	c0.5,0,0.8,0.3,0.8,0.7H34.3z"/>
<path class="st0" d="M46.6,10.6c0-0.1,0-0.2,0-0.3c-0.1-0.9-0.6-1.4-1.4-1.4c-0.8,0-1.4,0.6-1.4,1.5c0,0.9,0.6,1.5,1.5,1.5
	c0.6,0,1.1-0.4,1.3-0.8h-0.6c-0.1,0.2-0.4,0.3-0.7,0.3c-0.5,0-0.8-0.3-0.9-0.7H46.6z M44.3,10.1c0-0.4,0.4-0.7,0.8-0.7
	c0.5,0,0.8,0.3,0.8,0.7H44.3z"/>
<path class="st0" d="M42.7,8.9h0.6v2.8h-0.6v-1h-1.4v1h-0.6V8.9h0.6v1.2h1.4V8.9z"/>
<path class="st0" d="M32,11.8V9.4h-0.9V8.9h2.4v0.5h-0.9v2.3H32z"/>
<path class="st0" d="M37.1,8.9L37.1,8.9V13v0h0.6v-1.7c0.2,0.3,0.7,0.5,1,0.5c0,0,0,0,0,0c0,0,0,0,0,0c0.4,0,0.7-0.1,1-0.4
	c0,0,0,0,0,0c0,0,0,0,0,0c0.2-0.3,0.4-0.6,0.4-1v0v0c0-0.4-0.1-0.8-0.4-1c0,0,0,0,0,0c0,0,0,0,0,0c-0.2-0.2-0.6-0.4-1-0.4
	c0,0,0,0,0,0c0,0,0,0,0,0c-0.4,0-0.8,0.2-1,0.5l-0.1-0.4H37.1z M37.7,10.3c0-0.5,0.4-0.9,0.9-0.9c0.5,0,0.9,0.4,0.9,0.9
	c0,0.5-0.4,0.9-0.9,0.9C38.1,11.2,37.7,10.8,37.7,10.3z"/>
<path class="st0" d="M27.6,14v2.8H27v-2.3h-1.3v2.3H25V14H27.6z"/>
<path class="st0" d="M43,14.9c0.7,0,1.1,0.4,1.1,1c0,0.6-0.5,1-1.1,1h-1.2V14h0.6v0.9H43z M42.9,16.3c0.3,0,0.6-0.2,0.6-0.4
	c0-0.3-0.3-0.5-0.6-0.5h-0.5v0.9H42.9z"/>
<path class="st0" d="M30.6,14l-0.1,0.4c-0.2-0.3-0.7-0.5-1-0.5c0,0,0,0,0,0c0,0,0,0,0,0c-0.4,0-0.7,0.1-1,0.4c0,0,0,0,0,0
	c0,0,0,0,0,0c-0.2,0.3-0.4,0.6-0.4,1v0v0c0,0.4,0.1,0.8,0.4,1c0,0,0,0,0,0c0,0,0,0,0,0c0.2,0.2,0.6,0.4,1,0.4c0,0,0,0,0,0
	c0,0,0,0,0,0c0.4,0,0.8-0.2,1-0.5v0.4h0.6v0V14v0L30.6,14L30.6,14z M29.6,16.3c-0.5,0-0.9-0.4-0.9-0.9s0.4-0.9,0.9-0.9
	c0.5,0,0.9,0.4,0.9,0.9S30.2,16.3,29.6,16.3z"/>
<path class="st0" d="M31.8,14L31.8,14v4.1v0h0.6v-1.7c0.2,0.3,0.7,0.5,1,0.5c0,0,0,0,0,0c0,0,0,0,0,0c0.4,0,0.7-0.1,1-0.4
	c0,0,0,0,0,0c0,0,0,0,0,0c0.2-0.3,0.4-0.6,0.4-1v0v0c0-0.4-0.1-0.8-0.4-1c0,0,0,0,0,0c0,0,0,0,0,0c-0.2-0.2-0.6-0.4-1-0.4
	c0,0,0,0,0,0c0,0,0,0,0,0c-0.4,0-0.8,0.2-1,0.5L32.4,14H31.8z M32.4,15.4c0-0.5,0.4-0.9,0.9-0.9c0.5,0,0.9,0.4,0.9,0.9
	s-0.4,0.9-0.9,0.9C32.8,16.3,32.4,15.9,32.4,15.4z"/>
<path class="st0" d="M38.6,16.3c0.2,0,0.5-0.1,0.5-0.6V14h2.2v2.9h-0.6v-2.3h-1v1.2c0,0.8-0.5,1.2-1.1,1.1L38.6,16.3z"/>
<path class="st0" d="M36.8,13.9c-0.9,0-1.5,0.6-1.5,1.5c0,0.8,0.6,1.5,1.5,1.5c0.9,0,1.5-0.6,1.5-1.5C38.3,14.6,37.6,13.9,36.8,13.9
	z M36.8,16.3c-0.5,0-0.9-0.4-0.9-0.9c0-0.5,0.4-0.9,0.9-0.9c0.5,0,0.9,0.4,0.9,0.9C37.7,15.9,37.3,16.3,36.8,16.3z"/>
</svg>
