<svg width="38" height="20" viewBox="0 0 38 20" fill="none" xmlns="http://www.w3.org/2000/svg">
<path fill-rule="evenodd" clip-rule="evenodd" d="M28.812 12.3848L29.4181 15.3588L27.7087 15.3524L28.812 12.3848ZM26.6446 18.201C26.7424 18.1487 26.9045 17.5698 26.9564 17.4256C27.1481 16.8941 27.0195 17.0043 27.6221 17.0043C28.3364 17.0043 29.0512 17.0019 29.7619 17.0051L30.0055 18.201L31.9369 18.2002L30.2682 10.1847C29.708 10.1675 29.0983 10.1695 28.5369 10.1795C27.993 10.1899 27.7455 10.4263 27.547 10.907C27.2132 11.718 26.8674 12.5242 26.5316 13.3344C25.8855 14.8924 25.0482 16.6378 24.5007 18.201H26.6446Z" fill="#CACACB"/>
<path fill-rule="evenodd" clip-rule="evenodd" d="M10.4463 18.1997C11.0173 18.1977 11.5883 18.1997 12.1593 18.1997C12.6165 18.1997 12.6029 18.3147 12.7602 17.9374L14.0056 14.9662C14.6509 13.4361 15.4527 11.7235 16.0049 10.179L13.826 10.181L11.6637 15.5923C11.4893 14.9366 11.3651 14.0163 11.2361 13.3311C11.0939 12.5752 10.9498 11.8177 10.8096 11.067C10.6164 10.0328 9.82896 10.179 9.00161 10.179C8.10278 10.179 7.20396 10.1814 6.30593 10.179L6.2644 10.4178C6.81823 10.524 8.0349 10.8718 8.47493 11.2016C8.81953 11.4599 9.09944 12.9713 9.22322 13.4472C9.62452 14.9873 10.1201 16.658 10.4463 18.1997Z" fill="#CACACB"/>
<path fill-rule="evenodd" clip-rule="evenodd" d="M24.6283 12.0888C24.6646 11.7689 24.7912 11.3041 24.8627 10.9747C24.9992 10.343 25.1378 10.4145 24.5316 10.2428C23.7602 10.024 22.9352 9.96728 22.1434 10.1086C20.7978 10.349 19.4434 11.2662 19.5384 12.7951C19.6434 14.4834 21.3776 14.5956 22.2209 15.4058C22.9488 16.1049 21.8935 16.6204 21.2258 16.65C20.0283 16.7027 19.621 16.2966 19.0548 16.154L18.6863 17.9166C19.4138 18.103 19.889 18.3163 20.694 18.3226C21.4722 18.3286 22.054 18.3055 22.7927 18.0312C23.987 17.5879 24.8683 16.4164 24.5524 15.1083C24.2346 13.7918 22.8837 13.5782 21.9865 12.8902C21.271 12.3415 21.9689 11.7965 22.6194 11.7278C23.3928 11.6455 23.9267 11.8352 24.6283 12.0888Z" fill="#CACACB"/>
<path fill-rule="evenodd" clip-rule="evenodd" d="M15.1863 18.2004C15.6842 18.1996 16.1825 18.2004 16.6809 18.2004C17.4559 18.2004 17.2483 18.2432 17.4164 17.4613C17.5905 16.6535 17.763 15.8474 17.9335 15.0444C18.1076 14.2222 18.2801 13.4248 18.4522 12.6098C18.6091 11.8675 18.8754 10.9104 18.9677 10.1797L16.8957 10.1829L15.1863 18.2004Z" fill="#CACACB"/>
<path fill-rule="evenodd" clip-rule="evenodd" d="M29.5768 4.08494C31.1816 3.77548 31.4287 6.71353 29.9833 7.00343C28.295 7.34203 28.1393 4.36205 29.5768 4.08494ZM28.559 6.86527C28.7327 6.9603 28.7906 7.34203 29.3683 7.52172C29.7593 7.64311 30.2093 7.61436 30.5838 7.44186C32.0105 6.78501 31.9706 4.25504 30.6769 3.64611C30.2987 3.46802 29.8447 3.45125 29.4498 3.57703C28.8664 3.7631 28.9155 4.02784 28.644 4.21072L28.6352 1.75781L27.9384 1.76181L27.9285 7.50255H28.5206L28.559 6.86527Z" fill="#CACACB"/>
<path fill-rule="evenodd" clip-rule="evenodd" d="M23.3537 4.07079C24.2537 3.94261 24.556 4.68571 24.554 5.43839C24.5516 6.16272 24.4725 6.95733 23.5418 7.01683C21.9849 7.11665 21.8958 4.27763 23.3537 4.07079ZM24.5196 4.07917C24.1878 3.0921 21.5089 3.18793 21.6027 5.70353C21.6555 7.11825 22.7731 7.91845 23.882 7.48361C24.4062 7.27837 24.3264 7.12743 24.6259 6.82836L24.6682 7.50198L25.2967 7.50318L25.2811 6.98648C25.2248 6.82996 25.2544 2.33103 25.2544 1.76562L24.5612 1.76602V4.08836C24.4813 4.11112 24.5452 4.09794 24.5196 4.07917Z" fill="#CACACB"/>
<path fill-rule="evenodd" clip-rule="evenodd" d="M4.23651 6.74385L4.22174 6.77899L4.19099 6.72788L2.76709 2.04807L2.0144 2.05286V2.07962L3.7849 7.50212L4.57592 7.49773L6.51812 2.04807L5.75625 2.04688L4.23651 6.74385Z" fill="#CACACB"/>
<path fill-rule="evenodd" clip-rule="evenodd" d="M18.5649 5.16243C18.5186 3.69779 20.8178 3.61713 20.6261 5.16482L18.5649 5.16243ZM18.5478 5.67353C19.2158 5.67273 19.8838 5.67353 20.5519 5.67353C20.9017 5.67353 21.3109 5.8045 21.3237 5.45671C21.392 3.61514 19.703 3.011 18.632 3.84314C16.9566 5.14486 17.9979 8.60719 21.0993 7.34461L20.9831 6.8339C19.8611 7.1781 18.5889 7.1757 18.5478 5.67353Z" fill="#CACACB"/>
<path fill-rule="evenodd" clip-rule="evenodd" d="M6.91258 5.16595C6.86705 3.70051 9.16064 3.62025 8.97377 5.16834L6.91258 5.16595ZM6.89501 5.67705C7.56304 5.67705 8.23147 5.67705 8.8995 5.67705C9.25288 5.67705 9.65817 5.80842 9.67094 5.45943C9.68213 5.16195 9.64459 4.86927 9.54996 4.58616C9.17581 3.46373 7.89406 3.17064 6.99084 3.83747C5.50744 4.93236 5.90434 8.43862 9.44654 7.35571L9.32994 6.83742C8.22747 7.15566 6.91537 7.19639 6.89501 5.67705Z" fill="#CACACB"/>
<path fill-rule="evenodd" clip-rule="evenodd" d="M35.3224 3.63226V3.58594L34.5693 3.58753L33.5331 6.69489L32.4274 3.58634L31.6472 3.58594C31.9175 4.45282 32.4294 5.54411 32.778 6.41538C33.0116 6.99956 33.2947 7.26589 32.9398 7.82372C32.4969 8.5193 32.0992 8.5181 31.8668 8.70777L32.0361 9.29434C33.8901 8.94415 34.5625 5.11446 35.3224 3.63226Z" fill="#CACACB"/>
<path fill-rule="evenodd" clip-rule="evenodd" d="M16.2387 1.77223C14.7541 1.42005 14.2307 2.1931 14.2307 3.58266L13.6808 3.58426L13.6804 4.1341L14.2307 4.14128V7.5026L14.9342 7.503V4.13529L15.8802 4.12651L15.8806 3.58506L14.9342 3.58067C14.9342 2.66866 15.0764 2.02858 16.1513 2.33046L16.2387 1.77223Z" fill="#CACACB"/>
<path fill-rule="evenodd" clip-rule="evenodd" d="M10.2383 7.50453L10.9239 7.50493C11.1259 6.74586 10.3737 3.82178 12.1633 4.19752L12.1402 3.51551C11.2214 3.37456 10.9758 4.23745 10.8468 4.35644L10.8217 3.58619L10.2175 3.58579L10.2383 7.50453Z" fill="#CACACB"/>
<path fill-rule="evenodd" clip-rule="evenodd" d="M16.5789 7.50507H17.296V3.58634L16.5789 3.58594V7.50507Z" fill="#CACACB"/>
<path fill-rule="evenodd" clip-rule="evenodd" d="M12.5847 7.50507H13.3015V3.58634L12.5847 3.58594V7.50507Z" fill="#CACACB"/>
<path fill-rule="evenodd" clip-rule="evenodd" d="M17.365 2.60328C17.5255 2.00473 16.6331 1.81427 16.5061 2.3681C16.3675 2.97144 17.2228 3.13236 17.365 2.60328Z" fill="#CACACB"/>
<path fill-rule="evenodd" clip-rule="evenodd" d="M12.5038 2.58503C12.5905 3.10173 13.4801 3.01947 13.3723 2.39337C13.2784 1.84753 12.3972 1.94855 12.5038 2.58503Z" fill="#CACACB"/>
<path fill-rule="evenodd" clip-rule="evenodd" d="M24.5186 4.07463C24.5442 4.09339 24.4803 4.10657 24.5601 4.08381V1.76148L25.2533 1.76108C25.2533 2.32649 25.2238 6.82541 25.2801 6.98194L25.2693 1.75549C25.1723 1.72514 24.6628 1.73193 24.547 1.7483C24.5166 1.95434 24.5386 3.48326 24.5398 3.94685C24.5398 4.01713 24.5446 4.02671 24.5186 4.07463Z" fill="#CACACB"/>
<path fill-rule="evenodd" clip-rule="evenodd" d="M4.23571 6.74253L4.19019 6.72656L4.22093 6.77767L4.23571 6.74253Z" fill="#CACACB"/>
</svg>
