<!-- icon666.com - MILLIONS vector ICONS FREE --><svg xmlns="http://www.w3.org/2000/svg" viewBox="0 0 24 24"><path d="M15.5279,16H6V8h9.5279A7.2359,7.2359,0,0,1,22,12,7.2359,7.2359,0,0,1,15.5279,16Z" fill="#ff8f43" style="fill: rgb(255, 255, 255);"></path><path d="M14,8H6V4H9.5279a4,4,0,0,1,3.5777,2.2111Zm-.8944,9.7889L14,16H6v4H9.5279A4,4,0,0,0,13.1056,17.7889ZM16,12a1.5,1.5,0,1,0-1.5,1.5A1.5,1.5,0,0,0,16,12Z" fill="#fcd34d" style="fill: rgb(255, 255, 255);"></path><path d="M4,4.5H2a.5.5,0,0,1,0-1H4.0707A1.9841,1.9841,0,0,0,4,4ZM4,20v-.5H2a.5.5,0,0,0,0,1H4.0707A1.9841,1.9841,0,0,1,4,20Zm18.4473-8.2236a.5.5,0,0,1,0,.4472A7.6941,7.6941,0,0,1,15.5278,16.5H14.3091l-.7564,1.5127A4.475,4.475,0,0,1,9.5278,20.5H6a.5.5,0,0,1-.5-.5V16.5H2a.5.5,0,0,1,0-1H5.5v-3H2a.5.5,0,0,1,0-1H5.5v-3H2a.5.5,0,0,1,0-1H5.5V4A.5.5,0,0,1,6,3.5H9.5278a4.475,4.475,0,0,1,4.0249,2.4873L14.3091,7.5h1.2187A7.6941,7.6941,0,0,1,22.4473,11.7764ZM6.5,7.5h6.6909l-.5327-1.0654A3.48,3.48,0,0,0,9.5278,4.5H6.5Zm6.6909,9H6.5v3H9.5278a3.48,3.48,0,0,0,3.13-1.9346ZM21.436,12a6.6968,6.6968,0,0,0-5.9082-3.5H6.5v3H10a.5.5,0,0,1,0,1H6.5v3h9.0278A6.6968,6.6968,0,0,0,21.436,12ZM16.5,12a2,2,0,1,1-2-2A2.002,2.002,0,0,1,16.5,12Zm-1,0a1,1,0,1,0-1,1A1.0013,1.0013,0,0,0,15.5,12Z" fill="#0f172a" style="fill: rgb(69, 121, 242);"></path></svg>