<!-- icon666.com - MILLIONS vector ICONS FREE --><svg id="Layer_1" viewBox="0 0 256 256" xmlns="http://www.w3.org/2000/svg"><g><g><circle cx="91.683" cy="77.948" fill="#f8af23" r="22.369"></circle><path d="m45.178 121.863h-10.447c-2.761 0-5-2.239-5-5v-25.515c0-2.761 2.239-5 5-5h10.447c2.761 0 5 2.239 5 5v25.515c0 2.761-2.239 5-5 5z" fill="#afafaf"></path><path d="m148.634 121.863h-10.447c-2.761 0-5-2.239-5-5v-25.515c0-2.761 2.239-5 5-5h10.447c2.761 0 5 2.239 5 5v25.515c0 2.761-2.239 5-5 5z" fill="#e2e2e2"></path><path d="m123.411 139.04h-63.456c-11.046 0-20-8.954-20-20v-29.869c0-11.046 8.954-20 20-20h63.456c11.046 0 20 8.954 20 20v29.869c0 11.046-8.955 20-20 20z" fill="#cecece"></path><g><path d="m54.621 119.04v-29.869c0-11.046 8.954-20 20-20h-14.666c-11.046 0-20 8.954-20 20v29.869c0 11.046 8.954 20 20 20h14.667c-11.046 0-20.001-8.955-20.001-20z" fill="#afafaf"></path></g><g><path d="m128.744 119.04v-29.869c0-11.046-8.954-20-20-20h14.667c11.046 0 20 8.954 20 20v29.869c0 11.046-8.954 20-20 20h-14.667c11.046 0 20-8.955 20-20z" fill="#e2e2e2"></path></g><path d="m115.483 121.778h-47.6c-9.76 0-17.672-7.912-17.672-17.672 0-9.76 7.912-17.672 17.672-17.672h47.6c9.76 0 17.672 7.912 17.672 17.672 0 9.759-7.912 17.672-17.672 17.672z" fill="#63bce7"></path><g><path d="m64.877 104.106c0-9.76 7.912-17.672 17.672-17.672h-14.666c-9.76 0-17.672 7.912-17.672 17.672 0 9.76 7.912 17.672 17.672 17.672h14.667c-9.761 0-17.673-7.913-17.673-17.672z" fill="#6377e7"></path></g><path d="m74.207 139.04h34.951v16.675h-34.951z" fill="#9e9e9e"></path><g><path d="m74.207 139.04h14.667v16.675h-14.667z" fill="#707070"></path></g><path d="m143.111 234.918h-102.857c-13.031 0-22.582-12.262-19.391-24.897l11.806-46.755c1.121-4.44 5.116-7.552 9.696-7.552h98.636c4.58 0 8.574 3.111 9.696 7.552l11.806 46.755c3.19 12.635-6.361 24.897-19.392 24.897z" fill="#63bce7"></path><g><path d="m35.529 210.022 11.806-46.755c1.121-4.44 5.116-7.552 9.696-7.552h-14.666c-4.58 0-8.574 3.111-9.696 7.552l-11.806 46.755c-3.19 12.634 6.36 24.897 19.391 24.897h14.667c-13.031-.001-22.582-12.263-19.392-24.897z" fill="#6377e7"></path></g><g><path d="m147.836 210.022-11.806-46.755c-1.121-4.44-5.116-7.552-9.696-7.552h14.667c4.58 0 8.574 3.111 9.696 7.552l11.806 46.755c3.19 12.634-6.36 24.897-19.391 24.897h-14.667c13.031-.001 22.581-12.263 19.391-24.897z" fill="#63e2e7"></path></g><path d="m121.336 218.151h-59.307c-7.514 0-13.021-7.07-11.181-14.355l6.808-26.959c.647-2.56 2.95-4.354 5.591-4.354h56.873c2.641 0 4.944 1.794 5.591 4.354l6.808 26.959c1.838 7.285-3.669 14.355-11.183 14.355z" fill="#f8af23"></path><circle cx="91.683" cy="195.317" fill="#f46275" r="11.184"></circle><g fill="#3f3679"><path d="m74.479 111.853h-5.495c-2.761 0-5-2.239-5-5v-5.495c0-2.761 2.239-5 5-5h5.495c2.761 0 5 2.239 5 5v5.495c0 2.761-2.238 5-5 5z"></path><path d="m114.381 111.853h-5.495c-2.761 0-5-2.239-5-5v-5.495c0-2.761 2.239-5 5-5h5.495c2.761 0 5 2.239 5 5v5.495c0 2.761-2.238 5-5 5z"></path></g></g><path d="m224.623 74.996c14.844-14.844 14.844-38.91 0-53.754s-38.91-14.844-53.754 0c-12.767 12.767-14.542 32.352-5.348 47.028l-5.792 14.244c-.927 2.279 1.344 4.55 3.623 3.623l14.244-5.792c14.675 9.193 34.26 7.418 47.027-5.349z" fill="#63bce7"></path><g><path d="m224.623 21.241c-9.296-9.296-22.21-12.769-34.21-10.421 7.161 1.401 13.996 4.874 19.544 10.421 14.844 14.844 14.844 38.91 0 53.754-5.542 5.542-12.368 9.009-19.52 10.411 11.994 2.344 24.895-1.119 34.187-10.411 14.843-14.843 14.843-38.91-.001-53.754z" fill="#63e2e7"></path></g><g><g fill="#f46275"><circle cx="176.384" cy="48.228" r="6.217"></circle><circle cx="197.636" cy="48.228" r="6.217"></circle><circle cx="218.888" cy="48.228" r="6.217"></circle></g><g fill="#3f3679"><path d="m27.323 244.392h-18.003c-.829 0-1.5.671-1.5 1.5s.671 1.5 1.5 1.5h18.003c.829 0 1.5-.671 1.5-1.5s-.671-1.5-1.5-1.5z"></path><path d="m246.68 244.392h-18.003c-.829 0-1.5.671-1.5 1.5s.671 1.5 1.5 1.5h18.003c.829 0 1.5-.671 1.5-1.5s-.671-1.5-1.5-1.5z"></path><path d="m218.479 244.392h-180.958c-.829 0-1.5.671-1.5 1.5s.671 1.5 1.5 1.5h180.959c.829 0 1.5-.671 1.5-1.5s-.672-1.5-1.501-1.5z"></path><path d="m9.32 236.418h30.934 102.857 103.569c.829 0 1.5-.671 1.5-1.5s-.671-1.5-1.5-1.5h-92.602c2.274-1.351 4.312-3.127 5.995-5.289 4.103-5.268 5.518-12.001 3.884-18.475l-11.806-46.755c-1.291-5.113-5.876-8.685-11.15-8.685h-30.342v-13.674h12.752c10.375 0 19.057-7.387 21.063-17.177h4.16c3.584 0 6.5-2.916 6.5-6.5v-25.515c0-3.584-2.916-6.5-6.5-6.5h-4.161c-2.007-9.79-10.689-17.177-21.063-17.177h-10.188c-3.95-8.263-12.37-13.592-21.54-13.592-9.193 0-17.581 5.322-21.534 13.592h-10.193c-10.375 0-19.057 7.387-21.063 17.177h-4.16c-3.584 0-6.5 2.916-6.5 6.5v25.515c0 3.584 2.916 6.5 6.5 6.5h4.16c2.006 9.79 10.688 17.177 21.063 17.177h12.752v13.675h-30.342c-5.273 0-9.859 3.571-11.15 8.685l-11.806 46.755c-1.634 6.474-.219 13.208 3.884 18.475 1.683 2.161 3.721 3.937 5.995 5.289h-19.968c-.829 0-1.5.671-1.5 1.5s.671 1.499 1.5 1.499zm139.314-148.57c1.93 0 3.5 1.57 3.5 3.5v25.515c0 1.93-1.57 3.5-3.5 3.5h-3.791c.027-.44.067-.876.067-1.323v-29.869c0-.447-.04-.883-.067-1.323zm-56.951-30.769c7.529 0 14.48 4.109 18.161 10.592h-36.317c3.679-6.487 10.607-10.592 18.156-10.592zm-56.952 63.284c-1.93 0-3.5-1.57-3.5-3.5v-25.515c0-1.93 1.57-3.5 3.5-3.5h3.79c-.027.44-.067.877-.067 1.323v29.869c0 .446.04.883.067 1.323zm6.724-1.323v-29.869c0-10.201 8.299-18.5 18.5-18.5h63.456c10.201 0 18.5 8.299 18.5 18.5v29.869c0 10.201-8.299 18.5-18.5 18.5h-14.252-34.952-14.252c-10.202 0-18.5-8.299-18.5-18.5zm34.252 21.5h31.951v13.675h-31.951zm-50.048 85.746c-3.53-4.532-4.748-10.327-3.341-15.897l11.806-46.755c.955-3.779 4.344-6.419 8.242-6.419h31.842 34.951 31.841c3.898 0 7.287 2.64 8.241 6.419l11.806 46.755c1.407 5.57.189 11.365-3.341 15.897-3.53 4.533-8.85 7.132-14.595 7.132h-102.857c-5.745 0-11.065-2.599-14.595-7.132z"></path><path d="m134.655 104.105c0-10.571-8.601-19.172-19.172-19.172h-47.601c-10.571 0-19.172 8.601-19.172 19.172s8.601 19.172 19.172 19.172h47.601c10.571 0 19.172-8.6 19.172-19.172zm-82.945 0c0-8.917 7.255-16.172 16.172-16.172h47.601c8.917 0 16.172 7.255 16.172 16.172s-7.255 16.172-16.172 16.172h-47.601c-8.917 0-16.172-7.255-16.172-16.172z"></path><path d="m127.165 176.469c-.816-3.231-3.713-5.487-7.045-5.487h-56.874c-3.332 0-6.229 2.256-7.045 5.487l-6.807 26.959c-.991 3.924-.133 8.006 2.354 11.199s6.234 5.024 10.281 5.024h59.308c4.047 0 7.794-1.831 10.281-5.024s3.345-7.274 2.354-11.199zm2.086 36.315c-1.915 2.458-4.799 3.867-7.915 3.867h-59.307c-3.115 0-6-1.41-7.915-3.868-1.914-2.458-2.575-5.6-1.812-8.621l6.807-26.958c.479-1.897 2.181-3.222 4.137-3.222h56.874c1.956 0 3.657 1.325 4.136 3.222l6.807 26.959c.763 3.021.103 6.163-1.812 8.621z"></path><path d="m91.683 182.632c-6.994 0-12.685 5.69-12.685 12.684s5.69 12.685 12.685 12.685 12.685-5.69 12.685-12.685-5.691-12.684-12.685-12.684zm0 22.369c-5.34 0-9.685-4.344-9.685-9.685 0-5.34 4.344-9.684 9.685-9.684s9.685 4.344 9.685 9.684c-.001 5.341-4.345 9.685-9.685 9.685z"></path><path d="m159.277 86.587c.829.829 1.898 1.264 3.001 1.264.546 0 1.101-.107 1.638-.325l13.541-5.506c15.585 9.355 35.311 6.953 48.226-5.963 15.405-15.405 15.405-40.47 0-55.875-7.462-7.463-17.384-11.573-27.938-11.573s-20.476 4.11-27.938 11.573c-12.916 12.916-15.318 32.642-5.962 48.226l-5.507 13.541c-.659 1.621-.299 3.399.939 4.638zm1.841-3.509 5.792-14.244c.182-.446.137-.953-.119-1.361-9.079-14.492-6.967-33.066 5.137-45.17 6.896-6.896 16.065-10.694 25.817-10.694s18.92 3.798 25.816 10.694c14.235 14.235 14.235 37.397 0 51.633-12.104 12.104-30.679 14.216-45.171 5.138-.409-.256-.916-.299-1.361-.119l-14.244 5.792c-.73.299-1.247-.139-1.387-.28-.14-.142-.577-.659-.28-1.389z"></path><path d="m176.384 55.946c4.255 0 7.717-3.462 7.717-7.717s-3.462-7.717-7.717-7.717-7.717 3.462-7.717 7.717 3.461 7.717 7.717 7.717zm0-12.435c2.601 0 4.717 2.116 4.717 4.717s-2.116 4.717-4.717 4.717-4.717-2.116-4.717-4.717 2.116-4.717 4.717-4.717z"></path><path d="m197.636 55.946c4.255 0 7.717-3.462 7.717-7.717s-3.462-7.717-7.717-7.717-7.717 3.462-7.717 7.717 3.461 7.717 7.717 7.717zm0-12.435c2.601 0 4.717 2.116 4.717 4.717s-2.116 4.717-4.717 4.717-4.717-2.116-4.717-4.717 2.116-4.717 4.717-4.717z"></path><path d="m218.898 55.943c1.546 0 3.106-.462 4.459-1.424 1.681-1.194 2.795-2.971 3.14-5.003.344-2.033-.125-4.078-1.318-5.758-1.194-1.681-2.971-2.795-5.003-3.14-2.035-.345-4.078.125-5.758 1.318-3.469 2.465-4.286 7.292-1.821 10.761 1.503 2.117 3.884 3.246 6.301 3.246zm-2.743-11.56c.807-.573 1.752-.873 2.723-.873.265 0 .531.022.797.067 1.243.21 2.329.892 3.059 1.919.729 1.027 1.016 2.277.806 3.52s-.892 2.329-1.919 3.059c-1.028.729-2.278 1.016-3.52.805-1.243-.21-2.329-.892-3.059-1.918-1.506-2.122-1.007-5.072 1.113-6.579z"></path></g></g></g></svg>