<!-- icon666.com - MILLIONS vector ICONS FREE --><svg id="Слой_1" viewBox="0 0 128 128" xmlns="http://www.w3.org/2000/svg"><path d="m127.59 14.79a2 2 0 0 0 -1.59-.79h-124a2 2 0 0 0 0 4h20.48l13.59 48.52 6 22a2 2 0 0 0 1.93 1.48h64a2 2 0 0 0 0-4h-62.47l-4.91-18h71.38a2 2 0 0 0 1.93-1.46l14-50a2 2 0 0 0 -.34-1.75zm-17.11 49.21h-71l-12.84-46h96.72z"></path><path d="m45.43 94a13 13 0 1 0 13 13 13 13 0 0 0 -13-13zm0 22a9 9 0 1 1 9-9 9 9 0 0 1 -9 9z"></path><path d="m107 94a13 13 0 1 0 13 13 13 13 0 0 0 -13-13zm0 22a9 9 0 1 1 9-9 9 9 0 0 1 -9 9z"></path></svg>