<!-- icon666.com - MILLIONS vector ICONS FREE --><svg xmlns="http://www.w3.org/2000/svg" xmlns:xlink="http://www.w3.org/1999/xlink" version="1.1" id="Layer_1" x="0px" y="0px" viewBox="0 0 511.771 511.771" style="enable-background:new 0 0 511.771 511.771;" xml:space="preserve"><g><g><path style="" d="M285,460.885h-30c-71.797,0-130-58.203-130-130v-30h290v30 C415,402.682,356.797,460.885,285,460.885z" fill="#E3F2FD"></path><polygon style="fill: rgb(135, 173, 201);" points="415,170.885 125,170.885 125,90.885 415,90.885 495,130.885 " fill="#FF9B6B"></polygon><g><polygon style="fill: rgb(135, 173, 201);" points="215,90.885 125,90.885 125,20.885 185,20.885 " fill="#FF9B6B"></polygon><polygon style="fill: rgb(135, 173, 201);" points="215,170.885 125,170.885 125,240.885 185,240.885 " fill="#FF9B6B"></polygon></g><path style="fill: rgb(175, 46, 4);" d="M95,130.885L95,130.885c0,21.766-23.942,35.036-42.4,23.5l-37.6-23.5l37.6-23.5 C71.058,95.849,95,109.119,95,130.885z" fill="#FF7373"></path><path style="" d="M285,460.885h-30c-21.644,0-42.049-5.296-60-14.653v44.653h150v-44.653 C327.049,455.589,306.644,460.885,285,460.885z" fill="#4FC3F7"></path><path style="" d="M225,490.885h90v-33.496c-9.632,2.278-19.672,3.496-30,3.496h-30c-10.328,0-20.368-1.219-30-3.496 V490.885z" fill="#29B6F6"></path><path style="fill: rgb(93, 131, 142);" d="M315,427.4V300.885h-90V427.4c-57.333-13.544-100-65.044-100-126.515v30 c0,71.797,58.203,130,130,130h30c71.797,0,130-58.203,130-130v-30C415,362.356,372.333,413.856,315,427.4z" fill="#C3E9F4"></path><g><polygon style="fill: rgb(54, 103, 181);" points="125,90.885 215,90.885 202.143,60.885 125,60.885 " fill="#E6783C"></polygon><polygon style="fill: rgb(54, 103, 181);" points="125,200.885 202.143,200.885 215,170.885 125,170.885 " fill="#E6783C"></polygon></g><polygon style="fill: rgb(54, 103, 181);" points="462,114.385 409,140.885 315,140.885 315,90.885 225,90.885 225,140.885 125,140.885 125,170.885 415,170.885 495,130.885 " fill="#E6783C"></polygon><rect x="255" y="90.885" style="" width="30" height="400" fill="#B0BEC5"></rect><rect x="255" y="460.885" style="" width="30" height="30" fill="#90A4AE"></rect></g><g><path d="M154.555,401.028c-14.43-20.621-22.056-44.876-22.055-70.143v-22.5h53.21v-15H117.5v37.5 c-0.001,28.358,8.563,55.587,24.764,78.742L154.555,401.028z" fill="#000000"></path><path d="M67.262,166.168c5.839,0,11.693-1.49,17.096-4.484c11.36-6.297,18.143-17.811,18.143-30.799s-6.782-24.502-18.143-30.799 c-11.36-6.294-24.718-5.944-35.731,0.938l-47.777,29.86l47.776,29.86C54.402,164.356,60.822,166.168,67.262,166.168z M56.576,113.746c6.319-3.952,13.986-4.155,20.51-0.539c6.521,3.614,10.414,10.223,10.414,17.679s-3.894,14.064-10.414,17.679 c-6.521,3.614-14.189,3.412-20.511-0.539l-27.424-17.14L56.576,113.746z" fill="#000000"></path><path d="M292.5,230.885h-15v252.5h-15v-385h15v117.5h15v-37.5h124.271l95-47.5l-95-47.5h-42.885v15h39.344l65,32.5l-65,32.5H292.5 v-65h66.386v-15h-138.94l-30-70H117.5v235h72.445l30-70H247.5v115h-46.79v15h46.79v144.761 c-32.26-1.983-62.611-16.682-84.196-41.029l-11.225,9.951c10.241,11.551,22.245,21.159,35.421,28.582v47.735h165v-47.747 c41.753-23.628,70-68.451,70-119.753v-37.5h-130V230.885z M247.5,483.385h-45v-25.438c14.208,5.873,29.411,9.378,45,10.231 V483.385z M132.5,28.385h47.555l23.571,55H132.5V28.385z M180.055,233.385H132.5v-55h71.126L180.055,233.385z M247.5,163.385h-115 v-65h115V163.385z M337.5,483.385h-45v-15.207c15.857-0.856,31.006-4.416,45-10.219V483.385z M407.5,308.385v22.5 c0,65.028-50.933,118.374-115,122.264V308.385H407.5z" fill="#000000"></path><rect x="30" y="440.385" width="15" height="15" fill="#000000"></rect><rect x="60" y="440.385" width="84" height="15" fill="#000000"></rect><rect y="440.385" width="15" height="15" fill="#000000"></rect><rect x="63" y="393.385" width="48" height="15" fill="#000000"></rect><rect x="17" y="346.385" width="15" height="15" fill="#000000"></rect><rect x="47" y="346.385" width="44" height="15" fill="#000000"></rect></g><g><path style="" d="M235,338.385h-50v-15h50V338.385z M170,338.385h-15v-15h15V338.385z" fill="#FFFFFF"></path><path style="" d="M330.16,428.434l-6.32-13.604c10.94-5.084,20.672-12.166,28.924-21.05l10.99,10.209 C354.174,414.303,342.872,422.528,330.16,428.434z" fill="#FFFFFF"></path><path style="" d="M416,128.385h-50v-15h50V128.385z M351,128.385h-15v-15h15V128.385z M321,128.385h-15v-15h15 V128.385z" fill="#FFFFFF"></path></g></g></svg>