<!-- icon666.com - MILLIONS vector ICONS FREE --><svg viewBox="0 0 64 64" xmlns="http://www.w3.org/2000/svg" xmlns:xlink="http://www.w3.org/1999/xlink"><linearGradient id="linear-gradient" gradientUnits="userSpaceOnUse" x1="3.25" x2="60.75" y1="32" y2="32"><stop offset="0" stop-color="#5bb4f6"></stop><stop offset=".61" stop-color="#2191e5"></stop><stop offset="1" stop-color="#007edb"></stop></linearGradient><g id="Layer_6" data-name="Layer 6"><path d="m32 3.25a28.75 28.75 0 0 0 -28.75 28.75 28.75 28.75 0 0 0 28.75 28.75 28.75 28.75 0 0 0 28.75-28.75 28.75 28.75 0 0 0 -28.75-28.75zm17.5 39.94h-1.61a2.92 2.92 0 0 1 .33 1.31 2.81 2.81 0 1 1 -5.22-1.31h-11a2.8 2.8 0 1 1 -5.27 1.31 2.92 2.92 0 0 1 .27-1.31h-2.61a.74.74 0 0 1 -.72-.55l-1.3-4.8-5.32-19.65h-2.55a.75.75 0 0 1 0-1.5h3.13a.76.76 0 0 1 .72.56l1.27 4.75h25.89a.74.74 0 0 1 .73.62l2.76 14.89a.77.77 0 0 1 -.16.62.78.78 0 0 1 -.58.27h-24.18l.92 3.29h24.5a.75.75 0 0 1 0 1.5z" fill="url(#linear-gradient)" style="fill: rgb(34, 131, 33);"></path></g></svg>